<svg id="Icon_ionic-md-paper" data-name="Icon ionic-md-paper" xmlns="http://www.w3.org/2000/svg" width="38.437" height="32.946" viewBox="0 0 38.437 32.946">
  <path id="Path_1" data-name="Path 1" d="M39.064,4H15.728a1.414,1.414,0,0,0-1.373,1.416v2.7H5.6a3.614,3.614,0,0,0-3.6,3.6v17.8a7.437,7.437,0,0,0,7.379,7.421h24a7.078,7.078,0,0,0,7.061-7.035V5.373A1.377,1.377,0,0,0,39.064,4Zm-24.71,6.864V27.337h-3.6V12.511a4.189,4.189,0,0,0-.283-1.647ZM12.9,32.776A5.067,5.067,0,0,1,9.421,34.2a4.687,4.687,0,0,1-4.676-4.676V12.511a1.63,1.63,0,1,1,3.26,0v16.2a1.377,1.377,0,0,0,1.373,1.373h4.933A4.514,4.514,0,0,1,12.9,32.776Zm24.8-2.866a4.336,4.336,0,0,1-4.316,4.29H15.324A7.172,7.172,0,0,0,17.1,29.525V6.831H37.692Z" transform="translate(-2 -4)" fill="#666"/>
  <path id="Path_2" data-name="Path 2" d="M15.5,8.5H29.228v4.8H15.5Z" transform="translate(3.032 -2.323)" fill="#666"/>
  <path id="Path_3" data-name="Path 3" d="M15.5,14H29.228v2.746H15.5Z" transform="translate(3.032 -0.272)" fill="#666"/>
  <path id="Path_4" data-name="Path 4" d="M15.5,18H29.228v2.746H15.5Z" transform="translate(3.032 1.219)" fill="#666"/>
  <path id="Path_5" data-name="Path 5" d="M29.414,22H15.686s0,2.746-.686,2.746H27.758C29.414,24.746,29.414,22.944,29.414,22Z" transform="translate(2.846 2.71)" fill="#666"/>
</svg>
