<svg xmlns="http://www.w3.org/2000/svg" width="51.998" height="20.128" viewBox="0 0 51.998 20.128">
  <g id="broken-wire" transform="translate(0 -156.904)">
    <path id="Path_158" data-name="Path 158" d="M226.6,166.443a1.644,1.644,0,0,0-1.346-.7l-4.1.047,2.822-7.761a.838.838,0,1,0-1.576-.573l-2.822,7.761a1.642,1.642,0,0,0,1.543,2.2l4.1-.047-1.9,5.215-.015-.1a.839.839,0,0,0-1.659.248l.536,3.581a.839.839,0,0,0,1.431.461l2.523-2.6a.836.836,0,0,0-1.18-1.184l1.837-5.051A1.642,1.642,0,0,0,226.6,166.443Z" transform="translate(-197.185)" fill="#ffdc64"/>
    <path id="Path_159" data-name="Path 159" d="M89.087,194.132H83.42a.839.839,0,0,1,0-1.677h5.668a1.687,1.687,0,0,0,1.186-.491l1.779-1.779a.839.839,0,0,1,1.186,1.186l-1.779,1.779A3.376,3.376,0,0,1,89.087,194.132Z" transform="translate(-74.194 -29.68)" fill="#00c3ff"/>
    <path id="Path_160" data-name="Path 160" d="M87.742,251.938a.836.836,0,0,1-.593-.246l-1.779-1.779a1.688,1.688,0,0,0-1.186-.491H75.162a.839.839,0,1,1,0-1.677h9.022a3.376,3.376,0,0,1,2.372.983l1.779,1.779a.839.839,0,0,1-.593,1.432Z" transform="translate(-66.775 -81.616)" fill="#e6646e"/>
    <path id="Path_161" data-name="Path 161" d="M91.806,285.809a.836.836,0,0,1-.593-.246L88.6,282.946a1.688,1.688,0,0,0-1.186-.491H83.42a.839.839,0,1,1,0-1.677h3.99a3.376,3.376,0,0,1,2.372.983l2.618,2.618a.839.839,0,0,1-.593,1.432Z" transform="translate(-74.194 -111.293)" fill="#ffdc64"/>
    <path id="Path_162" data-name="Path 162" d="M12.334,201.918l-1.186-1.186a2.459,2.459,0,0,0-1.158-.649.832.832,0,0,1-.527-.45l-.882-1.765a.749.749,0,0,1,.047-.751l1.231-1.847a.749.749,0,0,0,.086-.657l-.426-1.255a.749.749,0,0,1,.3-.866l1.552-1.024a.839.839,0,0,0-.93-1.4l-1.882,1.255a1.677,1.677,0,0,1-.931.282H.839a.839.839,0,0,0-.839.839v8.387a.839.839,0,0,0,.839.839H9.37a.838.838,0,0,1,.593.246l1.186,1.186a.839.839,0,0,0,1.186-1.186Z" transform="translate(0 -29.672)" fill="#5d5360"/>
    <path id="Path_163" data-name="Path 163" d="M0,275.035a.839.839,0,0,0,.839.839H9.37a.838.838,0,0,1,.593.246l1.186,1.186a.839.839,0,0,0,1.186-1.186l-1.186-1.186a2.458,2.458,0,0,0-1.158-.649.832.832,0,0,1-.527-.45l-.657-1.315H0Z" transform="translate(0 -103.874)" fill="#4b3f4e"/>
    <g id="Group_628" data-name="Group 628" transform="translate(16.774 160.258)">
      <circle id="Ellipse_4" data-name="Ellipse 4" cx="0.839" cy="0.839" r="0.839" transform="translate(0.839 0)" fill="#ebc9a0"/>
      <circle id="Ellipse_5" data-name="Ellipse 5" cx="0.839" cy="0.839" r="0.839" transform="translate(0 12.581)" fill="#ebc9a0"/>
      <circle id="Ellipse_6" data-name="Ellipse 6" cx="0.839" cy="0.839" r="0.839" transform="translate(3.354 8.388)" fill="#ebc9a0"/>
    </g>
    <path id="Path_164" data-name="Path 164" d="M326.462,280.777h5.668a.839.839,0,0,1,0,1.677h-5.668a1.687,1.687,0,0,0-1.186.491l-1.779,1.779a.839.839,0,0,1-1.186-1.186l1.779-1.779A3.376,3.376,0,0,1,326.462,280.777Z" transform="translate(-289.357 -111.293)" fill="#ffdc64"/>
    <path id="Path_165" data-name="Path 165" d="M298.128,222.971a.836.836,0,0,1,.593.246L300.5,225a1.688,1.688,0,0,0,1.186.491h9.022a.839.839,0,1,1,0,1.677h-9.022a3.376,3.376,0,0,1-2.372-.983l-1.779-1.779a.839.839,0,0,1,.593-1.432Z" transform="translate(-267.097 -59.358)" fill="#e6646e"/>
    <path id="Path_166" data-name="Path 166" d="M331.161,181.68a.836.836,0,0,1,.593.246l2.618,2.618a1.688,1.688,0,0,0,1.186.491h3.99a.839.839,0,0,1,0,1.677h-3.99a3.376,3.376,0,0,1-2.372-.983l-2.618-2.618a.839.839,0,0,1,.593-1.432Z" transform="translate(-296.775 -22.26)" fill="#00c3ff"/>
    <path id="Path_167" data-name="Path 167" d="M388.375,191.37l1.186,1.186a2.459,2.459,0,0,0,1.158.649.832.832,0,0,1,.527.45l.882,1.765a.749.749,0,0,1-.047.751l-1.231,1.847a.749.749,0,0,0-.086.657l.426,1.255a.749.749,0,0,1-.3.866l-1.552,1.024a.839.839,0,0,0,.93,1.4l1.882-1.255a1.677,1.677,0,0,1,.931-.282h6.786a.839.839,0,0,0,.839-.839v-8.387a.839.839,0,0,0-.839-.839H391.34a.838.838,0,0,1-.593-.246l-1.186-1.186a.839.839,0,0,0-1.186,1.186Z" transform="translate(-348.712 -29.68)" fill="#5d5360"/>
    <g id="Group_629" data-name="Group 629" transform="translate(30.192 159.42)">
      <circle id="Ellipse_7" data-name="Ellipse 7" cx="0.839" cy="0.839" r="0.839" transform="translate(2.516 12.58)" fill="#ebc9a0"/>
      <circle id="Ellipse_8" data-name="Ellipse 8" cx="0.839" cy="0.839" r="0.839" transform="translate(3.354 0)" fill="#ebc9a0"/>
      <circle id="Ellipse_9" data-name="Ellipse 9" cx="0.839" cy="0.839" r="0.839" transform="translate(0 4.193)" fill="#ebc9a0"/>
    </g>
    <path id="Path_168" data-name="Path 168" d="M398.152,272.519a.745.745,0,0,0,.029.35l.426,1.255a.749.749,0,0,1-.3.866l-1.552,1.024a.839.839,0,0,0,.93,1.4l1.882-1.255a1.678,1.678,0,0,1,.93-.282h6.786a.839.839,0,0,0,.839-.839v-2.516h-9.975Z" transform="translate(-356.129 -103.874)" fill="#4b3f4e"/>
  </g>
</svg>
