<svg id="hole" xmlns="http://www.w3.org/2000/svg" width="45.15" height="24.895" viewBox="0 0 45.15 24.895">
  <path id="Path_175" data-name="Path 175" d="M45.15,127.293c0,3.321-2.357,6.338-6.2,8.568-4.113,2.389-9.928,3.879-16.375,3.879C10.107,139.74,0,134.167,0,127.293s10.107-12.448,22.575-12.448a39.14,39.14,0,0,1,8.267.861h0C39.221,117.524,45.15,122.027,45.15,127.293Z" transform="translate(0 -114.845)" fill="#98a7ae"/>
  <path id="Path_176" data-name="Path 176" d="M364.057,136.2c0,3.321-2.357,6.338-6.2,8.568-1.631-3.395-3.426-7.52-3.426-9.237,0-3.148-1.689-10.122-4.682-10.917C358.127,126.432,364.057,130.934,364.057,136.2Z" transform="translate(-318.907 -123.753)" fill="#7b888e"/>
  <path id="Path_177" data-name="Path 177" d="M61.149,230.582c-3.392,4.51-11.455,7.683-20.862,7.683s-17.47-3.172-20.862-7.683c3.392-4.511,11.455-7.684,20.862-7.684S57.757,226.07,61.149,230.582Z" transform="translate(-17.712 -213.37)" fill="#332f41"/>
</svg>
