<svg xmlns="http://www.w3.org/2000/svg" width="150.41" height="150.41" viewBox="0 0 150.41 150.41">
  <g id="Icon_ionic-ios-checkmark-circle-outline" data-name="Icon ionic-ios-checkmark-circle-outline" transform="translate(-3.375 -3.375)">
    <path id="Path_1219" data-name="Path 1219" d="M87.881,19.184,81.518,12.64a1.368,1.368,0,0,0-1.012-.434h0a1.313,1.313,0,0,0-1.012.434L35.382,57.076,19.329,41.023a1.4,1.4,0,0,0-2.025,0l-6.436,6.436a1.441,1.441,0,0,0,0,2.061L31.116,69.767a6.4,6.4,0,0,0,4.23,2.061,6.71,6.71,0,0,0,4.194-1.989h.036L87.917,21.245A1.546,1.546,0,0,0,87.881,19.184Z" transform="translate(29.242 36.581)" fill="#ff00c7"/>
    <path id="Path_1220" data-name="Path 1220" d="M78.58,13.5a65.092,65.092,0,0,1,46.027,111.108A65.092,65.092,0,0,1,32.553,32.553,64.651,64.651,0,0,1,78.58,13.5m0-10.124A75.205,75.205,0,1,0,153.785,78.58,75.194,75.194,0,0,0,78.58,3.375Z" transform="translate(0 0)" fill="#ff00c7"/>
  </g>
</svg>
