<svg xmlns="http://www.w3.org/2000/svg" width="28.017" height="28.017" viewBox="0 0 28.017 28.017">
  <g id="pcb" transform="translate(-1 -1)">
    <path id="Path_88" data-name="Path 88" d="M28.565,1H3.711a.451.451,0,0,0-.319.132L1.132,3.392A.451.451,0,0,0,1,3.711V26.306a.451.451,0,0,0,.132.319l2.259,2.259a.451.451,0,0,0,.319.132h23.95a.452.452,0,0,0,.452-.452V26.041l.771-.771a.451.451,0,0,0,.132-.319V1.452A.452.452,0,0,0,28.565,1ZM7.326,13.653v.987a1.348,1.348,0,0,0,0,2.545v.987H7.243a1.348,1.348,0,0,0-2.545,0H1.9V13.653Zm.452,2.711a.452.452,0,1,1,.452-.452A.453.453,0,0,1,7.778,16.364ZM6.423,18.624a.452.452,0,1,1-.452-.452A.453.453,0,0,1,6.423,18.624Zm21.691,6.139-.771.771a.451.451,0,0,0-.132.319v2.259H3.9L1.9,26.119V19.076h.9v2.259a.451.451,0,0,0,.132.319l.771.771V24.5h.9V22.239a.451.451,0,0,0-.132-.319l-.771-.771V19.076H4.7a1.348,1.348,0,0,0,2.545,0h.535a.452.452,0,0,0,.452-.452V17.185a1.348,1.348,0,0,0,0-2.545V12.032L9,11.261a.451.451,0,0,0,.132-.319V9.134h-.9v1.62l-.771.771a.451.451,0,0,0-.132.319v.9h-.9V10.49h-.9v2.259H3.711V11.581l.771-.771a.451.451,0,0,0,.132-.319V8.23h-.9V10.3l-.771.771a.451.451,0,0,0-.132.319v1.356H1.9V3.9L3.9,1.9H28.113Z"/>
    <path id="Path_89" data-name="Path 89" d="M6.356,33.711A1.356,1.356,0,1,0,5,32.356,1.357,1.357,0,0,0,6.356,33.711Zm0-1.808a.452.452,0,1,1-.452.452A.453.453,0,0,1,6.356,31.9Z" transform="translate(-2.192 -16.443)"/>
    <path id="Path_90" data-name="Path 90" d="M57,5h.9v.9H57Z" transform="translate(-30.694 -2.192)"/>
    <path id="Path_91" data-name="Path 91" d="M57,9h.9v1.808H57Z" transform="translate(-30.694 -4.385)"/>
    <path id="Path_92" data-name="Path 92" d="M57,15h.9v.9H57Z" transform="translate(-30.694 -7.674)"/>
    <path id="Path_93" data-name="Path 93" d="M53,5h.9v.9H53Z" transform="translate(-28.502 -2.192)"/>
    <path id="Path_94" data-name="Path 94" d="M53,9h.9v1.808H53Z" transform="translate(-28.502 -4.385)"/>
    <path id="Path_95" data-name="Path 95" d="M53,15h.9v.9H53Z" transform="translate(-28.502 -7.674)"/>
    <path id="Path_96" data-name="Path 96" d="M49,5h.9v.9H49Z" transform="translate(-26.309 -2.192)"/>
    <path id="Path_97" data-name="Path 97" d="M49,9h.9v1.808H49Z" transform="translate(-26.309 -4.385)"/>
    <path id="Path_98" data-name="Path 98" d="M49,15h.9v.9H49Z" transform="translate(-26.309 -7.674)"/>
    <path id="Path_99" data-name="Path 99" d="M45,5h.9v.9H45Z" transform="translate(-24.117 -2.192)"/>
    <path id="Path_100" data-name="Path 100" d="M45,9h.9v1.808H45Z" transform="translate(-24.117 -4.385)"/>
    <path id="Path_101" data-name="Path 101" d="M45,15h.9v.9H45Z" transform="translate(-24.117 -7.674)"/>
    <path id="Path_102" data-name="Path 102" d="M41,5h.9v.9H41Z" transform="translate(-21.924 -2.192)"/>
    <path id="Path_103" data-name="Path 103" d="M41,9h.9v1.808H41Z" transform="translate(-21.924 -4.385)"/>
    <path id="Path_104" data-name="Path 104" d="M41,15h.9v.9H41Z" transform="translate(-21.924 -7.674)"/>
    <path id="Path_105" data-name="Path 105" d="M37,5h.9v.9H37Z" transform="translate(-19.732 -2.192)"/>
    <path id="Path_106" data-name="Path 106" d="M37,9h.9v1.808H37Z" transform="translate(-19.732 -4.385)"/>
    <path id="Path_107" data-name="Path 107" d="M37,15h.9v.9H37Z" transform="translate(-19.732 -7.674)"/>
    <path id="Path_108" data-name="Path 108" d="M33,5h.9v.9H33Z" transform="translate(-17.54 -2.192)"/>
    <path id="Path_109" data-name="Path 109" d="M33,9h.9v1.808H33Z" transform="translate(-17.54 -4.385)"/>
    <path id="Path_110" data-name="Path 110" d="M33,15h.9v.9H33Z" transform="translate(-17.54 -7.674)"/>
    <path id="Path_111" data-name="Path 111" d="M29,5h.9v.9H29Z" transform="translate(-15.347 -2.192)"/>
    <path id="Path_112" data-name="Path 112" d="M29,9h.9v1.808H29Z" transform="translate(-15.347 -4.385)"/>
    <path id="Path_113" data-name="Path 113" d="M29,15h.9v.9H29Z" transform="translate(-15.347 -7.674)"/>
    <path id="Path_114" data-name="Path 114" d="M25,5h.9v.9H25Z" transform="translate(-13.155 -2.192)"/>
    <path id="Path_115" data-name="Path 115" d="M25,9h.9v1.808H25Z" transform="translate(-13.155 -4.385)"/>
    <path id="Path_116" data-name="Path 116" d="M25,15h.9v.9H25Z" transform="translate(-13.155 -7.674)"/>
    <path id="Path_117" data-name="Path 117" d="M21,5h.9v.9H21Z" transform="translate(-10.962 -2.192)"/>
    <path id="Path_118" data-name="Path 118" d="M21,9h.9v1.808H21Z" transform="translate(-10.962 -4.385)"/>
    <path id="Path_119" data-name="Path 119" d="M21,15h.9v.9H21Z" transform="translate(-10.962 -7.674)"/>
    <path id="Path_120" data-name="Path 120" d="M17,5h.9v.9H17Z" transform="translate(-8.77 -2.192)"/>
    <path id="Path_121" data-name="Path 121" d="M17,9h.9v1.808H17Z" transform="translate(-8.77 -4.385)"/>
    <path id="Path_122" data-name="Path 122" d="M17,15h.9v.9H17Z" transform="translate(-8.77 -7.674)"/>
    <path id="Path_123" data-name="Path 123" d="M13,5h.9v.9H13Z" transform="translate(-6.577 -2.192)"/>
    <path id="Path_124" data-name="Path 124" d="M13,9h.9v1.808H13Z" transform="translate(-6.577 -4.385)"/>
    <path id="Path_125" data-name="Path 125" d="M13,15h.9v.9H13Z" transform="translate(-6.577 -7.674)"/>
    <path id="Path_126" data-name="Path 126" d="M29,47h.9v.9H29Z" transform="translate(-15.347 -25.213)"/>
    <path id="Path_127" data-name="Path 127" d="M29,51h.9v1.808H29Z" transform="translate(-15.347 -27.406)"/>
    <path id="Path_128" data-name="Path 128" d="M29,57h.9v.9H29Z" transform="translate(-15.347 -30.694)"/>
    <path id="Path_129" data-name="Path 129" d="M25,47h.9v.9H25Z" transform="translate(-13.155 -25.213)"/>
    <path id="Path_130" data-name="Path 130" d="M25,51h.9v1.808H25Z" transform="translate(-13.155 -27.406)"/>
    <path id="Path_131" data-name="Path 131" d="M25,57h.9v.9H25Z" transform="translate(-13.155 -30.694)"/>
    <path id="Path_132" data-name="Path 132" d="M21,47h.9v.9H21Z" transform="translate(-10.962 -25.213)"/>
    <path id="Path_133" data-name="Path 133" d="M21,51h.9v1.808H21Z" transform="translate(-10.962 -27.406)"/>
    <path id="Path_134" data-name="Path 134" d="M21,57h.9v.9H21Z" transform="translate(-10.962 -30.694)"/>
    <path id="Path_135" data-name="Path 135" d="M17,47h.9v.9H17Z" transform="translate(-8.77 -25.213)"/>
    <path id="Path_136" data-name="Path 136" d="M17,51h.9v1.808H17Z" transform="translate(-8.77 -27.406)"/>
    <path id="Path_137" data-name="Path 137" d="M17,57h.9v.9H17Z" transform="translate(-8.77 -30.694)"/>
    <path id="Path_138" data-name="Path 138" d="M13,47h.9v.9H13Z" transform="translate(-6.577 -25.213)"/>
    <path id="Path_139" data-name="Path 139" d="M13,51h.9v1.808H13Z" transform="translate(-6.577 -27.406)"/>
    <path id="Path_140" data-name="Path 140" d="M13,57h.9v.9H13Z" transform="translate(-6.577 -30.694)"/>
    <path id="Path_141" data-name="Path 141" d="M51,26.778a.452.452,0,0,0,.452.452h2.711a.452.452,0,0,0,.452-.452V20.452A.452.452,0,0,0,54.163,20H51.452a.452.452,0,0,0-.452.452Zm.9-5.875h1.808v5.423H51.9Z" transform="translate(-27.406 -10.414)"/>
    <path id="Path_142" data-name="Path 142" d="M54.163,38H51.452a.452.452,0,0,0-.452.452v6.326a.452.452,0,0,0,.452.452h2.711a.452.452,0,0,0,.452-.452V38.452A.452.452,0,0,0,54.163,38Zm-.452,6.326H51.9V38.9h1.808Z" transform="translate(-27.406 -20.28)"/>
    <path id="Path_143" data-name="Path 143" d="M33.749,30.808H33.3V29h-.9v1.808h-.9V29h-.9v1.808h-.9V29h-.9v1.808H24.711v.9h3.163v.9H24.711a.451.451,0,0,0-.319.132l-.771.771H22v.9h1.808a.451.451,0,0,0,.319-.132l.771-.771h2.976v.9H25.615a.451.451,0,0,0-.319.132l-.771.771H22.9v.9h1.808a.451.451,0,0,0,.319-.132l.771-.771h2.976v1.808h.9V35.326h.9v1.62l-.771.771a.451.451,0,0,0-.132.319v1.808h.9v-1.62l.771-.771a.451.451,0,0,0,.132-.319V35.326h.9v1.808h.9V35.326h.452a.452.452,0,0,0,.452-.452V31.259A.452.452,0,0,0,33.749,30.808ZM33.3,34.423H28.778V31.711H33.3Z" transform="translate(-11.51 -15.347)"/>
    <path id="Path_144" data-name="Path 144" d="M54,23h.9v.9H54Z" transform="translate(-29.05 -12.058)"/>
    <path id="Path_145" data-name="Path 145" d="M54,31h.9v.9H54Z" transform="translate(-29.05 -16.443)"/>
    <path id="Path_146" data-name="Path 146" d="M54,41h.9v.9H54Z" transform="translate(-29.05 -21.924)"/>
    <path id="Path_147" data-name="Path 147" d="M54,49h.9v.9H54Z" transform="translate(-29.05 -26.309)"/>
    <path id="Path_148" data-name="Path 148" d="M22,19h.9v.9H22Z" transform="translate(-11.51 -9.866)"/>
    <path id="Path_149" data-name="Path 149" d="M31,19h.9v.9H31Z" transform="translate(-16.443 -9.866)"/>
    <path id="Path_150" data-name="Path 150" d="M22,29h.9v.9H22Z" transform="translate(-11.51 -15.347)"/>
    <path id="Path_151" data-name="Path 151" d="M31,29h.9v.9H31Z" transform="translate(-16.443 -15.347)"/>
    <path id="Path_152" data-name="Path 152" d="M25,19h2.259v.9H25Z" transform="translate(-13.155 -9.866)"/>
    <path id="Path_153" data-name="Path 153" d="M31,22h.9v2.711H31Z" transform="translate(-16.443 -11.51)"/>
    <path id="Path_154" data-name="Path 154" d="M25,29h2.259v.9H25Z" transform="translate(-13.155 -15.347)"/>
    <path id="Path_155" data-name="Path 155" d="M22,22h.9v2.711H22Z" transform="translate(-11.51 -11.51)"/>
    <path id="Path_156" data-name="Path 156" d="M36.356,21.711A1.356,1.356,0,1,0,35,20.356,1.357,1.357,0,0,0,36.356,21.711Zm0-1.808a.452.452,0,1,1-.452.452A.453.453,0,0,1,36.356,19.9Z" transform="translate(-18.636 -9.866)"/>
    <path id="Path_157" data-name="Path 157" d="M44.356,21.711A1.356,1.356,0,1,0,43,20.356,1.357,1.357,0,0,0,44.356,21.711Zm0-1.808a.452.452,0,1,1-.452.452A.453.453,0,0,1,44.356,19.9Z" transform="translate(-23.021 -9.866)"/>
  </g>
</svg>
