<svg xmlns="http://www.w3.org/2000/svg" width="24.184" height="24.698" viewBox="0 0 24.184 24.698">
  <g id="win" transform="translate(-0.131 0.129)">
    <path id="Path_11421" data-name="Path 11421" d="M.3,22.785l.316.712L11.966,18.79l1.978.237.712,2.176-.949.91a1.14,1.14,0,0,0-.277,1.305l.4.989,6.566-2.571-.356-.949a1.118,1.118,0,0,0-1.108-.752H17.623l-.712-1.7,1.74-.87a1.189,1.189,0,0,0,.593-1.464L16.99,10.048a1.219,1.219,0,0,0-1.543-.712.039.039,0,0,0-.039.04l-1.661.712-.237-.593.91-1.068a4.655,4.655,0,0,0,1.147-2.532L16.713,4.51a2.077,2.077,0,0,0-.277-2.927,3.311,3.311,0,0,0-.475-.316,1.966,1.966,0,0,0-1.345-.119L14.5.791a1.144,1.144,0,0,0-1.5-.712L4.648,3.086a1.158,1.158,0,0,0-.712,1.5v.04l.2.514a2.192,2.192,0,0,0-1.147,2.69A2.25,2.25,0,0,0,4.806,9.3l1.859.2a5.152,5.152,0,0,0,2.571.989l1.305.119.237.593a1.178,1.178,0,0,0-.554.791l-.277,1.345L.3,17.247.574,18l5.538-2.215,1.345,4.035Zm18.948-1.661.079.237-5.063,2.017-.119-.237a.548.548,0,0,1,.079-.435l1.345-1.266,1.7-.554h1.582a.4.4,0,0,1,.4.237Zm-2.492-.95-1.424.475-.514-1.5a.879.879,0,0,0,.633-.119l.673-.316ZM15.685,9.969a.393.393,0,0,1,.514.2l.316.831-1.938.633.237.752,1.938-.633.475,1.266-1.859.633.237.752,1.9-.633.475,1.266-1.82.593.237.752,1.859-.633.2.514a.349.349,0,0,1-.2.475l-3.125,1.543a.5.5,0,0,1-.237.04L12.2,18,10.74,13.608l.277-1.464a.418.418,0,0,1,.237-.277Zm-.04-7.991a1.311,1.311,0,0,1,.673,1.7,1.386,1.386,0,0,1-.2.316l-.475.593a5.912,5.912,0,0,0-.237-1.147L14.894,1.9a1.581,1.581,0,0,1,.752.079ZM3.778,7.635a1.363,1.363,0,0,1,.673-1.7L5,7.279A5.731,5.731,0,0,0,5.8,8.624l-.831-.079a1.323,1.323,0,0,1-1.187-.91ZM9.4,9.731A4.323,4.323,0,0,1,5.756,7L4.727,4.391a.392.392,0,0,1,.2-.514L13.272.87a.437.437,0,0,1,.317,0,.406.406,0,0,1,.2.237l.87,2.611a4.348,4.348,0,0,1-.831,4.193L12.6,9.336l.356.949-1.424.593-.4-.989ZM6.863,15.467l.91-.356.989,3.006.752-.237L8.485,14.795l1.582-.633,1.345,4L8.208,19.5Zm0,0" transform="translate(0 0)" fill="#333" stroke="#333" stroke-width="0.25"/>
    <path id="Path_11422" data-name="Path 11422" d="M357.474,41.134v.4h.791v-.4a1.959,1.959,0,0,1,1.978-1.978v-.791a1.959,1.959,0,0,1-1.978-1.978v-.4h-.791v.4a1.959,1.959,0,0,1-1.978,1.978v.791A1.959,1.959,0,0,1,357.474,41.134Zm.4-3.323a2.726,2.726,0,0,0,.949.949,2.728,2.728,0,0,0-.949.95,2.728,2.728,0,0,0-.949-.95A2.726,2.726,0,0,0,357.869,37.812Zm0,0" transform="translate(-337.636 -34.212)" fill="#333" stroke="#333" stroke-width="0.25"/>
    <path id="Path_11423" data-name="Path 11423" d="M5.474,201.135v.4h.791v-.4a1.959,1.959,0,0,1,1.978-1.978v-.791a1.959,1.959,0,0,1-1.978-1.978v-.4H5.474v.4A1.959,1.959,0,0,1,3.5,198.365v.791A1.959,1.959,0,0,1,5.474,201.135Zm.4-3.323a2.726,2.726,0,0,0,.949.949,2.728,2.728,0,0,0-.949.95,2.728,2.728,0,0,0-.949-.95A2.726,2.726,0,0,0,5.87,197.812Zm0,0" transform="translate(-3.041 -186.3)" fill="#333" stroke="#333" stroke-width="0.25"/>
    <path id="Path_11424" data-name="Path 11424" d="M390.265,196.388v-.4h-.791v.4a1.959,1.959,0,0,1-1.978,1.978v.791a1.959,1.959,0,0,1,1.978,1.978v.4h.791v-.4a1.959,1.959,0,0,1,1.978-1.978v-.791A1.959,1.959,0,0,1,390.265,196.388Zm-.4,3.323a2.728,2.728,0,0,0-.949-.95,2.726,2.726,0,0,0,.949-.949,2.727,2.727,0,0,0,.949.949A2.728,2.728,0,0,0,389.869,199.711Zm0,0" transform="translate(-368.053 -186.3)" fill="#333" stroke="#333" stroke-width="0.25"/>
    <path id="Path_11425" data-name="Path 11425" d="M236.376,45.056l.554.554c2.176-2.176.158-5.5.04-5.617l-.673.435c.04,0,1.82,2.888.079,4.628Zm0,0" transform="translate(-224.33 -38.014)" fill="#333" stroke="#333" stroke-width="0.25"/>
  </g>
</svg>
