<svg xmlns="http://www.w3.org/2000/svg" width="34.288" height="28.187" viewBox="0 0 34.288 28.187">
  <g id="Group_4344" data-name="Group 4344" transform="translate(-13613.174 -1832.97)">
    <path id="Path_11454" data-name="Path 11454" d="M171.073,24.712c0-6.313-7.743-11.431-17.292-11.431-7.163,0-13,3.091-15.643,6.861a7.217,7.217,0,0,0,.611,9.083c2.086,2.426,2.929,3.889,4.714,8.184,1.289,3.1,4.058,4.037,7.14,4.059,2.536.018,4.894-1.742,6.4-3.516a19.1,19.1,0,0,1,7.118-4.64c4.385-1.447,6.952-4.507,6.952-8.6" transform="translate(13476.39 1819.689)" fill="#561f80"/>
    <path id="Path_11455" data-name="Path 11455" d="M161.233,24.677c-.218-.226-2.223-1.383-2.933-1.891a33.262,33.262,0,0,0-4.779-2.56c-.464-.192-.879-.5-1.33-.729-.633-.321-1.275-.626-1.921-.922a.952.952,0,0,0-1.473.9c-.019.507.057,12.027.043,12.85a1.612,1.612,0,0,0,1.9,1.773,3.84,3.84,0,0,0,1.372-.581,20.824,20.824,0,0,0,2.34-1.455c1.13-.779,5.936-5.355,6.647-5.846a.96.96,0,0,0,.135-1.537" transform="translate(13475.735 1819.408)" fill="#fff"/>
  </g>
</svg>
