<svg xmlns="http://www.w3.org/2000/svg" xmlns:xlink="http://www.w3.org/1999/xlink" width="30" height="30" viewBox="0 0 30 30">
  <defs>
    <clipPath id="clip-path">
      <rect id="Rectangle_458" data-name="Rectangle 458" width="30" height="30" transform="translate(666 230)" fill="#fff"/>
    </clipPath>
  </defs>
  <g id="Mask_Group_8" data-name="Mask Group 8" transform="translate(-666 -230)" clip-path="url(#clip-path)">
    <g id="receipt-outline" transform="translate(665 229)">
      <path id="Path_1235" data-name="Path 1235" d="M10,21V3l2,1,2-1,2,1,2.023-1L20,4l1.987-1,2,1L26,3l2,1,2-1V17" fill="none" stroke="#fff" stroke-linejoin="round" stroke-width="2"/>
      <path id="Path_1236" data-name="Path 1236" d="M30,17v7a5,5,0,0,1-5,5h0a5,5,0,0,1-5-5V21H3a.991.991,0,0,0-1,1c0,4,.421,7,5,7H25" fill="none" stroke="#fff" stroke-linejoin="round" stroke-width="2"/>
      <line id="Line_27" data-name="Line 27" x2="12" transform="translate(14 9)" fill="none" stroke="#fff" stroke-linecap="round" stroke-linejoin="round" stroke-width="2"/>
      <line id="Line_28" data-name="Line 28" x2="8" transform="translate(18 14)" fill="none" stroke="#fff" stroke-linecap="round" stroke-linejoin="round" stroke-width="2"/>
    </g>
  </g>
</svg>
