<svg xmlns="http://www.w3.org/2000/svg" xmlns:xlink="http://www.w3.org/1999/xlink" width="603.69" height="431.907" viewBox="0 0 603.69 431.907">
  <defs>
    <linearGradient id="linear-gradient" x1="0.5" y1="1" x2="0.5" gradientUnits="objectBoundingBox">
      <stop offset="0" stop-color="gray" stop-opacity="0.251"/>
      <stop offset="0.54" stop-color="gray" stop-opacity="0.122"/>
      <stop offset="1" stop-color="gray" stop-opacity="0.102"/>
    </linearGradient>
    <linearGradient id="linear-gradient-2" x1="0.5" y1="1" x2="0.5" xlink:href="#linear-gradient"/>
  </defs>
  <g id="Group_3099" data-name="Group 3099" transform="translate(0.019 -0.003)">
    <path id="Path_1244" data-name="Path 1244" d="M655.522,330.411c-14,28.873-42.416,48.179-71.868,60.911-39.65,17.147-83.315,23.947-126.379,21.071q-11.32-.753-22.572-2.407a284.69,284.69,0,0,1-75.471-21.977q-10.4-4.683-20.376-10.225a260.667,260.667,0,0,1-31.849-20.829q-3.809-2.908-7.512-5.963c-1.712-1.412-3.408-2.855-5.131-4.256a64.747,64.747,0,0,0-11.547-7.865,41.247,41.247,0,0,0-3.867-1.707c-13.212-5.025-28.446-3.129-42.2.79-10.462,2.982-20.66,7.064-31.111,9.977a103.243,103.243,0,0,1-14.176,3.013,75.439,75.439,0,0,1-31.849-2.8l-.88-.274q-2.212-.7-4.388-1.522l-.88-.337q-2.107-.811-4.125-1.744l-.88-.4q-2.107-.98-4.125-2.07c-.485-.253-.964-.527-1.438-.785a86.217,86.217,0,0,1-20.628-16.061c-.174-.174-.337-.353-.527-.527-.838-.906-1.659-1.828-2.455-2.771-.295-.348-.59-.7-.88-1.054q-1.417-1.728-2.734-3.535c-.132-.174-.258-.353-.385-.527a76.166,76.166,0,0,1-8.881-16.061c-.074-.174-.142-.353-.205-.527q-1.054-2.713-1.923-5.515c-.237-.78-.464-1.58-.664-2.36-.068-.232-.132-.469-.19-.7-2.908-11.447-3.24-23.347-3.24-35.178v-4.135c.084-19.138.379-38.6,3.2-57.476a2.4,2.4,0,0,1,.058-.39,179.5,179.5,0,0,1,3.851-18.869,139.2,139.2,0,0,1,6.485-19.122c6.5-15.276,15.94-29.178,26.428-42.063C166.632,81.72,201.278,54.5,241.829,44.314c43.7-10.973,92.259-.458,127.506,27.6,10.746,8.555,20.4,18.685,32.47,25.243,10.535,5.71,22.867,8.075,34.151,3.582,9.324-3.714,15.392-5.557,25.865-4.994a216.8,216.8,0,0,1,63.4,13.28c.822.3,1.644.611,2.46.922,53.052,20.3,98.655,60.621,122.359,112.44q.943,2.054,1.828,4.14C666,259.544,671.115,298.235,655.522,330.411Z" transform="translate(-61.411 -40.04)" fill="#ff00c7" opacity="0.1"/>
    <ellipse id="Ellipse_66" data-name="Ellipse 66" cx="46.504" cy="7.47" rx="46.504" ry="7.47" transform="translate(17.076 376.451)" fill="#ff00c7" opacity="0.1"/>
    <ellipse id="Ellipse_67" data-name="Ellipse 67" cx="82.456" cy="8.007" rx="82.456" ry="8.007" transform="translate(398.308 415.896)" fill="#ff00c7" opacity="0.1"/>
    <rect id="Rectangle_508" data-name="Rectangle 508" width="500.611" height="283.579" rx="12.49" transform="translate(61.388 56.762)" fill="url(#linear-gradient)"/>
    <rect id="Rectangle_509" data-name="Rectangle 509" width="499.078" height="278.648" rx="12.49" transform="translate(62.183 60.749)" fill="#fff"/>
    <rect id="Rectangle_510" data-name="Rectangle 510" width="499.078" height="278.648" rx="12.49" transform="translate(62.183 60.749)" fill="#fff"/>
    <rect id="Rectangle_511" data-name="Rectangle 511" width="499.078" height="278.648" rx="12.49" transform="translate(62.183 60.749)" fill="#fff" opacity="0.04"/>
    <path id="Path_1245" data-name="Path 1245" d="M641.164,149.29H147.154a2.534,2.534,0,0,0-2.534,2.534v10.709H643.677V151.824a2.534,2.534,0,0,0-2.513-2.534Z" transform="translate(-82.437 -91.738)" fill="#5a5773"/>
    <g id="buttons" transform="translate(68.726 60.749)">
      <circle id="Ellipse_68" data-name="Ellipse 68" cx="3.424" cy="3.424" r="3.424" fill="#fff"/>
      <circle id="Ellipse_69" data-name="Ellipse 69" cx="3.424" cy="3.424" r="3.424" transform="translate(9.219)" fill="#fff"/>
      <circle id="Ellipse_70" data-name="Ellipse 70" cx="3.424" cy="3.424" r="3.424" transform="translate(18.437)" fill="#fff"/>
    </g>
    <rect id="Rectangle_512" data-name="Rectangle 512" width="133.933" height="11.368" transform="translate(103.288 95.701)" fill="#ff00c7" opacity="0.2"/>
    <rect id="Rectangle_513" data-name="Rectangle 513" width="416.869" height="174.868" transform="translate(103.288 141.283)" fill="#5a5773" opacity="0.1"/>
    <path id="Path_1246" data-name="Path 1246" d="M611.3,291.482h-7.138V277.617a28.507,28.507,0,1,0-57.013-.385v14.249h-7.122a11.916,11.916,0,0,0-11.879,11.879v57.008a11.916,11.916,0,0,0,11.879,11.879H611.3a11.91,11.91,0,0,0,11.873-11.879V303.361A11.91,11.91,0,0,0,611.3,291.482ZM579.827,328.54v20.418a4.262,4.262,0,0,1-3.951,4.277,4.167,4.167,0,0,1-4.362-4.162V328.53a9.482,9.482,0,1,1,8.313,0Zm16.035-37.059h-40.4V277.232a20.191,20.191,0,1,1,40.383,0Z" transform="translate(-263.932 -138.794)" opacity="0.1"/>
    <path id="Path_1247" data-name="Path 1247" d="M611.3,289.482h-7.138V275.617a28.507,28.507,0,1,0-57.013-.385v14.249h-7.122A11.916,11.916,0,0,0,528.15,301.36v57.008a11.916,11.916,0,0,0,11.879,11.879H611.3a11.91,11.91,0,0,0,11.873-11.879V301.36A11.91,11.91,0,0,0,611.3,289.482ZM579.827,326.54v20.418a4.262,4.262,0,0,1-3.951,4.277,4.167,4.167,0,0,1-4.362-4.162V326.53a9.482,9.482,0,1,1,8.313,0Zm16.035-37.059h-40.4V275.232a20.191,20.191,0,1,1,40.383,0Z" transform="translate(-263.932 -137.848)" fill="#ff00c7"/>
    <rect id="Rectangle_514" data-name="Rectangle 514" width="42.195" height="9.961" transform="translate(477.962 124.452)" fill="#5a5773" opacity="0.1"/>
    <path id="Path_1248" data-name="Path 1248" d="M949.5,584.3a14.993,14.993,0,0,0-1.412-4.009l-6.321-9.44h.037s-1-4.741,0-7.069-3.551-8.054-3.551-8.054a3.4,3.4,0,0,1,.89-3.208c1.443-1.77-.89-6.953-.89-6.953s-1.106-10.825-1.217-12.479-1-10.82-1-10.82l-2.107-19.433-3.751-51.5-.068-.964c.464-.227.711-.369.711-.369l-.748-28.477.648-.585c5.657-5.12,18.706-16.973,18.574-17.231s-1.58-19.791-1.749-24.679a29.411,29.411,0,0,0-2.244-10.1c-.327-.648-1.27-4.92-1.659-6.727-.105-.5-.174-.806-.174-.806s-3.824-7.291-3.492-10.6,1-5.794-7.159-6.953c0,0-6.848-1.022-10.925-3.809a31.079,31.079,0,0,0-7.828-3.919s-2.286-4.214-3.877-2.787a22.128,22.128,0,0,1-1.5-4.694l-.047-.295a15.524,15.524,0,0,0,6.132-8.776c.053-.2.095-.406.142-.606a1.714,1.714,0,0,0,.49.09c1.385,0,2.239-1.543,3.535-2.033.527-.205,1.175-.237,1.58-.653a1.543,1.543,0,0,0,.348-1.164,2.364,2.364,0,0,0,0-.432,1.518,1.518,0,0,0,0-.153v.053c-.353-1.917-1.838-3.619-1.675-5.568.158-1.833,1.77-3.445,1.638-5.231a2.851,2.851,0,0,0-.037-.421v.063a4.51,4.51,0,0,0-1.053-1.865,5.985,5.985,0,0,0-2.17-1.823c-.732-.321-1.58-.4-2.265-.78-2.012-1.1-2.007-3.951-3.2-5.9a5.22,5.22,0,0,0-4.883-2.418c-1.5.147-2.85.943-4.33,1.2a11.322,11.322,0,0,1-6-1.054,16.518,16.518,0,0,0-5.921-1.58c-2.06,0-4.288,1.054-4.91,3-.332,1.054-.169,2.186-.421,3.255-.453,1.886-2.107,3.234-3.819,4.172-1.054.585-2.307,1.254-2.634,2.36v-.084a2.032,2.032,0,0,0-.053.269,1.982,1.982,0,0,0,0,.353,6.643,6.643,0,0,0,.669,2.2,6.074,6.074,0,0,1-.032,4.246c-.39,1-1.054,1.881-1.433,2.876a5.661,5.661,0,0,0-.348,1.443v-.084a5.806,5.806,0,0,0,0,.674,4.742,4.742,0,0,0,.527,2.212,3.972,3.972,0,0,0,2.365,1.986c1.054.242,1.712-.79,2.824-.527a4.44,4.44,0,0,1,.585.184c.037.237.074.474.116.706a15.482,15.482,0,0,0,5.342,9.045,3.411,3.411,0,0,0,.058.385h0a35.36,35.36,0,0,1,.437,6.353s-1.659-2.428-3.935,2.26c0,0-5.937,3.424-7.986,3.814s-9.324,2.924-9.324,2.924a6.416,6.416,0,0,1-3.772,1.217c-2.27,0-4.156,4.967-3.882,7.67s-.163,4.694-2.276,4.8-.959,4.393-.943,4.467l-.195.922c-.411,1.886-1.306,5.931-1.622,6.564a29.5,29.5,0,0,0-2.249,10.1c-.163,4.888-1.58,24.348-1.744,24.679-.111.216,8.829,8.386,15.113,14.1l.911.822-2.892,27.013a7.212,7.212,0,0,0,2.971,5.268c0,.316,0,.637-.032.969-.126,3.161-.379,6.985-.885,7.986-.885,1.77-.664,11.262-.664,11.262s-.89,19.322-2,21.424a14.616,14.616,0,0,0-1,7.375c.332.864-1.112,24.068-1.112,24.068l-1.106,10.383s.332,9.935-.669,10.156-1.554,7.069-1.554,7.069-3.545,4.857-2,6.622-.226,2.544-.39,2.982-3.382,2.107-1.054,8.281a1.823,1.823,0,0,0,.074.179c-2.181,3.029-9.092,12.8-8.671,14.286a3.914,3.914,0,0,0,1.844,2.212c1.628.975,4.42,1.428,8.86,0,7.375-2.376,6.848-4.088,6.848-4.088a3.129,3.129,0,0,1,3.108-2.982c3.05-.221,5.326-3.034,5.326-3.034l-.358-1.333-.49-1.844c.058-.527.432-1.449,2.107-1.96,2.555-.774,1.886-5.631,1.886-5.631s-.221-5.078.885-5.742.669-9.055.669-9.055a62.221,62.221,0,0,1,2.992-10.161c1.77-4.088,3.888-28.372,3.888-28.372s1.438-11.926,2.771-15.35,2.555-13.027,2.555-13.027,8.212-15.9,8.318-19.438c0,0,1.054-3.313,2.107.332s4.014,12.369,4.014,12.369l2.881,10.709L911,503.583l2.223,13.475s-.337,5.078.527,6.848,2.107,5.847,1.443,6.622,1.328,4.42,1.886,5.189,0,17.115,0,17.115,2.55,13.912,6.211,16.33a4.48,4.48,0,0,0,.811.421c-.053,1.507-.105,3.524-.037,4.578a1.752,1.752,0,0,0,.116.69c.332.443,4.1,3.424,4.883,3.424s3.545,1.933,3.661,2.871,8.107,4.91,9.24,5.025,6.621,1.1,7.375-.443a2.556,2.556,0,0,0,.153-1.428ZM929.862,385.327l.569.49s.585,4.557,1,5.921a11.433,11.433,0,0,1-.084,4.019,9.247,9.247,0,0,0,.585,2.9c.5,1-1,3.161-1,3.161H929.6l-.416-17.057ZM890.233,334.4v-.1a.33.33,0,0,0-.016.1Zm-20.465,65.663a1.923,1.923,0,0,1-.084-1.406,4.218,4.218,0,0,0,.279-.78,12.07,12.07,0,0,0,.306-2.107.152.152,0,0,0,0-.026,11.142,11.142,0,0,1-.079-3.993c.4-1.3,1-5.921,1-5.921l.379-.321.88-.764a6.254,6.254,0,0,1,.063-.753c.184,4,.332,8.428.095,8.65-.443.437-2.054,4.741-1.665,4.91a20.155,20.155,0,0,1-.342,4.1A8.4,8.4,0,0,1,869.768,400.061Z" transform="translate(-414.979 -157.985)" fill="url(#linear-gradient-2)"/>
    <path id="Path_1249" data-name="Path 1249" d="M948.94,367.734v6.553L935.5,381.046s-13.348-8.075-10.056-11.289c2.107-2.033,1.7-7.617,1.133-11.457h0c-.332-2.234-.716-3.872-.716-3.872s23.979-6.848,20.355-1.649a8.177,8.177,0,0,0-.9,6.216A28.233,28.233,0,0,0,948.94,367.734Z" transform="translate(-451.693 -187.112)" fill="#c37098"/>
    <path id="Path_1250" data-name="Path 1250" d="M880.246,467.389l-1.733,21.345s-2.6-2.355-5.958-5.42c-6.232-5.684-15.082-13.812-14.976-14.028.163-.332,1.58-19.7,1.733-24.564a29.4,29.4,0,0,1,2.223-10.051,62.475,62.475,0,0,0,1.58-6.537c.126-.585.205-.964.205-.964L866.229,426s12.116,13.517,12.116,13.765-.827,10.63-.827,10.63l-.859.748-.374.321s-.579,4.536-.99,5.895a10.583,10.583,0,0,0,.079,3.972h0a12.246,12.246,0,0,1-.3,2.107,4.416,4.416,0,0,1-.279.774,1.933,1.933,0,0,0,.084,1.4,8.469,8.469,0,0,0,.906,1.733Z" transform="translate(-419.826 -222.684)" fill="#3f3d56"/>
    <path id="Path_1251" data-name="Path 1251" d="M1019.651,469.3c.126.258-12.8,12.053-18.395,17.147l-2.539,2.3L997,467.4h4.451s1.486-2.144.99-3.134a9.161,9.161,0,0,1-.574-2.881,11.484,11.484,0,0,0,.079-4c-.411-1.364-.99-5.895-.99-5.895l-.564-.485-.669-.585s-.827-10.383-.827-10.63,12.116-13.765,12.116-13.765l2.887,1.154s.063.311.169.806c.39,1.8,1.322,6.047,1.644,6.7a29.393,29.393,0,0,1,2.223,10.051C1018.071,449.6,1019.483,468.967,1019.651,469.3Z" transform="translate(-485.804 -222.698)" fill="#3f3d56"/>
    <path id="Path_1252" data-name="Path 1252" d="M1017.559,835.968c-.774,1.538-6.211.527-7.333.443s-9.045-4.072-9.155-5-2.855-2.855-3.624-2.855-4.5-2.971-4.836-3.408a1.681,1.681,0,0,1-.111-.685c-.116-1.807.111-6.458.111-6.458l15.935.88,7.744,11.647a15.022,15.022,0,0,1,1.4,3.988,2.633,2.633,0,0,1-.132,1.454Z" transform="translate(-483.659 -408.188)" fill="#3f3d56"/>
    <path id="Path_1253" data-name="Path 1253" d="M1017.559,835.968c-.774,1.538-6.211.527-7.333.443s-9.045-4.072-9.155-5-2.855-2.855-3.624-2.855-4.5-2.971-4.836-3.408a1.681,1.681,0,0,1-.111-.685c-.116-1.807.111-6.458.111-6.458l15.935.88,7.744,11.647a15.022,15.022,0,0,1,1.4,3.988,2.633,2.633,0,0,1-.132,1.454Z" transform="translate(-483.659 -408.188)" opacity="0.1"/>
    <path id="Path_1254" data-name="Path 1254" d="M1017.587,841.77c-.774,1.538-6.211.527-7.333.443s-9.045-4.072-9.155-5-2.855-2.855-3.624-2.855-4.5-2.971-4.836-3.408a1.681,1.681,0,0,1-.111-.685l5.162,3.266s3.3,2.107,4.177,3.356,7.812,3.845,8.386,3.9c.427.042,4.978-.832,7.464-.464a2.633,2.633,0,0,1-.132,1.454Z" transform="translate(-483.687 -413.99)" opacity="0.1"/>
    <path id="Path_1255" data-name="Path 1255" d="M873.99,826.87s-2.255,2.8-5.268,3.018a3.1,3.1,0,0,0-3.076,2.966s.527,1.707-6.758,4.072c-4.4,1.417-7.164.969-8.776,0a3.919,3.919,0,0,1-1.828-2.2c-.5-1.754,9.229-15.108,9.229-15.108l8.85-.527,6.321,2.855.969,3.619Z" transform="translate(-415.419 -408.704)" fill="#3f3d56"/>
    <path id="Path_1256" data-name="Path 1256" d="M873.99,826.87s-2.255,2.8-5.268,3.018a3.1,3.1,0,0,0-3.076,2.966s.527,1.707-6.758,4.072c-4.4,1.417-7.164.969-8.776,0a3.919,3.919,0,0,1-1.828-2.2c-.5-1.754,9.229-15.108,9.229-15.108l8.85-.527,6.321,2.855.969,3.619Z" transform="translate(-415.419 -408.704)" opacity="0.1"/>
    <path id="Path_1257" data-name="Path 1257" d="M875.649,832.667s-2.255,2.8-5.268,3.018a3.1,3.1,0,0,0-3.076,2.966s.527,1.707-6.759,4.072c-4.4,1.417-7.164.969-8.776,0,4.146-.432,13.306-3.05,14.223-3.956,1.1-1.1,2.476-4.125,3.408-4.177.648-.042,3.94-2.023,5.916-3.25Z" transform="translate(-417.077 -414.501)" fill="none"/>
    <path id="Path_1258" data-name="Path 1258" d="M875.649,832.667s-2.255,2.8-5.268,3.018a3.1,3.1,0,0,0-3.076,2.966s.527,1.707-6.759,4.072c-4.4,1.417-7.164.969-8.776,0,4.146-.432,13.306-3.05,14.223-3.956,1.1-1.1,2.476-4.125,3.408-4.177.648-.042,3.94-2.023,5.916-3.25Z" transform="translate(-417.077 -414.501)" opacity="0.1"/>
    <path id="Path_1259" data-name="Path 1259" d="M948.715,697.949c-.99,2.307,0,7.032,0,7.032s-14.75.769-18.353-1.649-6.153-16.267-6.153-16.267.527-16.261,0-17.031-2.529-4.393-1.87-5.162-.527-4.836-1.428-6.6-.527-6.811-.527-6.811l-2.2-13.412-3.4-15.93-2.892-10.662s-2.966-8.681-3.972-12.305-2.07-.332-2.07-.332c-.105,3.519-8.239,19.343-8.239,19.343s-1.212,9.561-2.528,12.964-2.75,15.276-2.75,15.276-2.107,24.174-3.845,28.24a62.3,62.3,0,0,0-2.934,10.109s.443,8.355-.658,9.013-.922,5.716-.922,5.716.658,4.831-1.87,5.6-2.107,2.418-2.107,2.418-14.065,2.307-16.372-3.851.88-7.8,1.054-8.239,1.928-1.206.39-2.971,1.975-6.59,1.975-6.59.553-6.811,1.538-7.032.664-10.109.664-10.109l1.1-10.33s1.433-23.078,1.1-23.958a14.637,14.637,0,0,1,.99-7.375c1.1-2.107,1.975-21.324,1.975-21.324s-.221-9.445.659-11.2c.527-1,.748-4.825.874-7.949.095-2.386.116-4.362.116-4.362l12.306-4.615,15.8-5.052,13.3,6.374,19.454,3.735.242,3.356,3.714,51.26,2.107,19.338s.88,9.118.99,10.767S945.17,679.8,945.17,679.8s2.307,5.162.88,6.922a3.337,3.337,0,0,0-.88,3.161S949.706,695.642,948.715,697.949Z" transform="translate(-422.29 -292.035)" fill="#3f3d56"/>
    <path id="Path_1260" data-name="Path 1260" d="M947.075,352.78a8.178,8.178,0,0,0-.9,6.216,15.456,15.456,0,0,1-18.737-.7h0c-.332-2.234-.716-3.872-.716-3.872S950.7,347.586,947.075,352.78Z" transform="translate(-452.546 -187.113)" opacity="0.1"/>
    <path id="Path_1261" data-name="Path 1261" d="M948.269,327.9a15.361,15.361,0,1,1-4.5-10.936A15.435,15.435,0,0,1,948.269,327.9Z" transform="translate(-448.135 -168.959)" fill="#c37098"/>
    <path id="Path_1262" data-name="Path 1262" d="M921.02,350.169l-5.057,90.052-27.471-5.768-5.442-36.1,5.389-48.463,4.056.521,7.154.911,7.085.437,7.68-.853Z" transform="translate(-417.673 -165.575)" opacity="0.1"/>
    <path id="Path_1263" data-name="Path 1263" d="M921.02,351.424l-5.057,90.052-27.471-5.768-5.442-36.1,5.389-48.458,4.056.516,7.154.911,7.085.437,7.68-.853Z" transform="translate(-417.673 -166.171)" fill="#ff00c7"/>
    <path id="Path_1264" data-name="Path 1264" d="M939.23,396.3l9.893.332-2.781,3.893s.195,7.865,1.517,10.119.932,37.085.932,37.085l-2.634,5-4.5-5.6.058-45.987Z" transform="translate(-458.466 -208.63)" fill="#3f3d56"/>
    <path id="Path_1265" data-name="Path 1265" d="M939.23,396.3l9.893.332-2.781,3.893s.195,7.865,1.517,10.119.932,37.085.932,37.085l-2.634,5-4.5-5.6.058-45.987Z" transform="translate(-458.466 -208.63)" opacity="0.1"/>
    <path id="Path_1266" data-name="Path 1266" d="M933.379,336.86l-9.229,10.219,5.273,5.494,8.739-8.518Z" transform="translate(-437.122 -159.409)" opacity="0.1"/>
    <path id="Path_1267" data-name="Path 1267" d="M933.379,335.61l-9.229,10.219,5.273,5.494,8.739-8.518Z" transform="translate(-437.122 -158.817)" fill="#ff00c7"/>
    <path id="Path_1268" data-name="Path 1268" d="M907.565,346.93l-9.345-9.34-.88,4.888,4.288,10.715Z" transform="translate(-424.435 -159.754)" opacity="0.1"/>
    <path id="Path_1269" data-name="Path 1269" d="M908.189,345.68l-9.34-9.34-.88,4.888,4.288,10.715Z" transform="translate(-424.733 -159.163)" fill="#ff00c7"/>
    <path id="Path_1270" data-name="Path 1270" d="M949.019,586.044a45.6,45.6,0,0,1-14.223,4.114c-9.066,1.154-15-10.383-15-10.383l-3.461,4.5c-1.1,4.783-17.858,5.989-24.669,4.177a10.9,10.9,0,0,1-3.909-1.849c.095-2.386.116-4.362.116-4.362l12.305-4.615,15.8-5.052,13.3,6.374,19.454,3.735Z" transform="translate(-434.109 -292.05)" opacity="0.1"/>
    <path id="Path_1271" data-name="Path 1271" d="M947.981,391.469l-5.052,90.047-27.477-5.768L910,439.653l5.384-48.463,4.056.527a49.232,49.232,0,0,1-.6,5.268c-.658,3.082,3.408,24.948,3.408,24.948s7.728,24.521,11.2,20.987,8.428-22.2,8.428-22.2c3.356-6.922.058-26.339-.19-26.729a7.843,7.843,0,0,1-.316-1.765Z" transform="translate(-444.633 -206.211)" opacity="0.1"/>
    <path id="Path_1272" data-name="Path 1272" d="M1001.019,514.805l.232,8.823-2.539,2.3L997,504.57h3.793Z" transform="translate(-485.804 -259.866)" opacity="0.1"/>
    <path id="Path_1273" data-name="Path 1273" d="M891.011,493.1h0a12.251,12.251,0,0,1-.3,2.107c0-.195,0-.306-.042-.321C890.511,494.844,890.7,494.038,891.011,493.1Z" transform="translate(-435.458 -254.438)" opacity="0.1"/>
    <path id="Path_1274" data-name="Path 1274" d="M893.7,503.013l-1.733,21.345s-2.6-2.355-5.958-5.421l.4-3.782s1.417-9.292,1.933-13.875a8.476,8.476,0,0,0,.906,1.733Z" transform="translate(-433.281 -258.309)" opacity="0.1"/>
    <path id="Path_1275" data-name="Path 1275" d="M900.058,375.887s-1.644-2.418-3.9,2.249c0,0-5.879,3.408-7.9,3.793s-9.219,2.913-9.219,2.913a6.364,6.364,0,0,1-3.735,1.206c-2.255,0-4.125,4.946-3.851,7.638s-.163,4.672-2.249,4.783-.938,4.446-.938,4.446l13.9,15.935s.88,14.671.443,15.113-2.033,4.741-1.649,4.888-2.107,16.372-2.107,16.372L875.5,486.71s0,5.268,6.817,7.085,23.584.616,24.664-4.167l3.461-4.509s5.932,11.542,15,10.388a43.6,43.6,0,0,0,14.839-4.451l-.99-37.733-.659-27.2,14.154-23.257s-3.793-7.254-3.461-10.535.985-5.768-7.09-6.922c0,0-6.811-1.017-10.825-3.793a30.941,30.941,0,0,0-7.744-3.9s-2.265-4.214-3.84-2.771c0,0,1.58,5.958,1.449,6.848a22.664,22.664,0,0,0,.5,5.331c.248.416,3.545,19.807.19,26.729,0,0-4.925,18.664-8.428,22.2s-11.2-20.987-11.2-20.987-4.067-21.872-3.408-24.948S900.058,375.887,900.058,375.887Z" transform="translate(-424.735 -198.383)" fill="#3f3d56"/>
    <circle id="Ellipse_71" data-name="Ellipse 71" cx="2.418" cy="2.418" r="2.418" transform="translate(484.663 244.704)" fill="#3f3d56"/>
    <circle id="Ellipse_72" data-name="Ellipse 72" cx="2.418" cy="2.418" r="2.418" transform="translate(484.663 256.104)" fill="#3f3d56"/>
    <circle id="Ellipse_73" data-name="Ellipse 73" cx="2.418" cy="2.418" r="2.418" transform="translate(484.663 244.704)" opacity="0.1"/>
    <circle id="Ellipse_74" data-name="Ellipse 74" cx="2.418" cy="2.418" r="2.418" transform="translate(484.663 256.104)" opacity="0.1"/>
    <path id="Path_1276" data-name="Path 1276" d="M992.47,804.34s9.925.769,10.91,1.538S992.47,804.34,992.47,804.34Z" transform="translate(-483.66 -401.724)" stroke="#ff00c7" stroke-miterlimit="10" stroke-width="1" opacity="0.1"/>
    <path id="Path_1277" data-name="Path 1277" d="M880.3,789.53s2.107,2.634,1.212,3.845S880.3,789.53,880.3,789.53Z" transform="translate(-430.578 -394.716)" stroke="#ff00c7" stroke-miterlimit="10" stroke-width="1" opacity="0.1"/>
    <path id="Path_1278" data-name="Path 1278" d="M885.1,806.28s3.845-2.528,5.384-.848S885.1,806.28,885.1,806.28Z" transform="translate(-432.85 -401.968)" stroke="#ff00c7" stroke-miterlimit="10" stroke-width="1" opacity="0.1"/>
    <path id="Path_1279" data-name="Path 1279" d="M948.278,327.909a15.356,15.356,0,0,1-.5,3.9,1.754,1.754,0,0,1-1.022-1.717c.068-.627.485-1.2.4-1.823-.132-.959-1.291-1.349-1.9-2.107-.753-.917-.59-2.249-.527-3.435s-.237-2.634-1.349-3.039c-.332-.121-.7-.132-1.017-.269-.874-.369-1.143-1.454-1.728-2.2-1.169-1.507-3.493-1.475-5.268-.759a25.029,25.029,0,0,1-2.37.99,3.1,3.1,0,0,1-2.481-.184c-.348-.221-.627-.527-.985-.748-1.191-.716-2.75,0-3.782.922s-1.859,2.16-3.161,2.723c-.585.263-1.306.421-1.58.99a2.075,2.075,0,0,0-.169.985,29.458,29.458,0,0,1-.184,6.137c-.274,1.291-1.18,2.755-2.492,2.6a2.463,2.463,0,0,1-.479-.121,15.435,15.435,0,1,1,30.606-2.855Z" transform="translate(-448.144 -168.964)" opacity="0.1"/>
    <path id="Path_1280" data-name="Path 1280" d="M911.464,320.2c.4.09.769.295,1.175.348,1.312.158,2.218-1.306,2.492-2.6a28.411,28.411,0,0,0,.19-6.137,2.009,2.009,0,0,1,.163-.985c.3-.569,1.022-.727,1.58-.99,1.275-.569,2.107-1.78,3.161-2.723s2.586-1.638,3.777-.922c.353.211.637.527.985.748a3.161,3.161,0,0,0,2.486.184c.817-.242,1.58-.669,2.365-.99,1.759-.716,4.088-.743,5.268.753.585.753.853,1.833,1.728,2.2.321.137.685.153,1.017.274,1.112.416,1.4,1.854,1.349,3.039s-.205,2.518.527,3.435c.611.748,1.77,1.138,1.9,2.107.084.622-.327,1.2-.4,1.823a1.749,1.749,0,0,0,1.649,1.865c1.37,0,2.218-1.533,3.5-2.023a4.157,4.157,0,0,0,1.58-.653,1.744,1.744,0,0,0,.327-1.428c-.258-2.018-1.875-3.772-1.7-5.795.163-1.939,1.96-3.629,1.58-5.536a4.489,4.489,0,0,0-1.054-1.881,6.089,6.089,0,0,0-2.149-1.817,22.1,22.1,0,0,1-2.249-.774c-1.991-1.09-1.986-3.935-3.161-5.874a5.157,5.157,0,0,0-4.8-2.392c-1.48.147-2.823.932-4.288,1.2a11.116,11.116,0,0,1-5.942-1.054,16.252,16.252,0,0,0-5.863-1.58c-2.039,0-4.246,1.054-4.867,2.982-.327,1.054-.163,2.181-.416,3.24-.443,1.881-2.107,3.219-3.782,4.151-1.154.643-2.539,1.38-2.676,2.692a5.55,5.55,0,0,0,.658,2.386,6.073,6.073,0,0,1-.032,4.214c-.385,1-1.027,1.87-1.417,2.86a5.136,5.136,0,0,0,.137,4.214,3.93,3.93,0,0,0,2.407,1.975C909.7,320.982,910.358,319.955,911.464,320.2Z" transform="translate(-442.615 -159.282)" fill="#3f3d56"/>
    <g id="Group_3097" data-name="Group 3097" transform="translate(463.119 145.227)" opacity="0.1">
      <path id="Path_1281" data-name="Path 1281" d="M915.129,336.841c-.274,1.291-1.185,2.755-2.5,2.6-.406-.053-.774-.258-1.175-.348-1.1-.242-1.754.79-2.792.527a3.94,3.94,0,0,1-2.413-1.975,4.562,4.562,0,0,1-.49-1.723,4.809,4.809,0,0,0,.49,2.713,3.94,3.94,0,0,0,2.413,1.975c1.054.242,1.691-.79,2.792-.527a11.916,11.916,0,0,0,1.175.342c1.312.163,2.223-1.3,2.5-2.592a15.218,15.218,0,0,0,.253-3.461A12.973,12.973,0,0,1,915.129,336.841Z" transform="translate(-905.733 -324.549)"/>
      <path id="Path_1282" data-name="Path 1282" d="M908.956,320.219a6.063,6.063,0,0,0-.348-2.544A13.456,13.456,0,0,1,908,316.01a2.422,2.422,0,0,0-.053.269,5.644,5.644,0,0,0,.658,2.386,6.041,6.041,0,0,1,.348,1.554Z" transform="translate(-906.777 -315.861)"/>
      <path id="Path_1283" data-name="Path 1283" d="M984.831,318.73c-.248,1.5-1.459,2.9-1.58,4.478a3.762,3.762,0,0,0,0,.811C983.514,322.18,985.141,320.553,984.831,318.73Z" transform="translate(-942.406 -317.148)"/>
      <path id="Path_1284" data-name="Path 1284" d="M980.119,339.83a1.239,1.239,0,0,1-.3.59c-.39.416-1.054.448-1.58.653-1.28.49-2.107,2.039-3.5,2.023a1.765,1.765,0,0,1-1.58-1.222,2.723,2.723,0,0,0-.074.348,1.749,1.749,0,0,0,1.649,1.859c1.375,0,2.218-1.533,3.5-2.018.527-.205,1.169-.237,1.58-.653a1.744,1.744,0,0,0,.327-1.428C980.135,339.92,980.125,339.877,980.119,339.83Z" transform="translate(-937.605 -327.133)"/>
      <path id="Path_1285" data-name="Path 1285" d="M971.659,335.555c-.132-.959-1.291-1.349-1.9-2.107a2.887,2.887,0,0,1-.579-1.728,3.889,3.889,0,0,0,.579,2.718c.606.737,1.528,1.054,1.823,1.812A1.691,1.691,0,0,0,971.659,335.555Z" transform="translate(-935.75 -323.295)"/>
      <path id="Path_1286" data-name="Path 1286" d="M947.765,322.471c.042-1.185-.242-2.634-1.354-3.039-.327-.121-.69-.137-1.011-.269-.874-.369-1.148-1.454-1.728-2.2-1.175-1.5-3.5-1.475-5.268-.759-.79.321-1.543.748-2.365.99a3.1,3.1,0,0,1-2.481-.184c-.348-.221-.632-.527-.985-.748-1.2-.716-2.755,0-3.782.922s-1.86,2.155-3.161,2.723c-.59.263-1.306.421-1.612.99a2.071,2.071,0,0,0-.163.985v.616a1.5,1.5,0,0,1,.153-.611c.306-.569,1.022-.727,1.612-.99,1.275-.569,2.107-1.781,3.161-2.723s2.586-1.638,3.782-.922c.353.211.637.527.985.743a3.076,3.076,0,0,0,2.481.184,24.341,24.341,0,0,0,2.365-.985c1.765-.716,4.088-.748,5.268.753.579.748.853,1.833,1.728,2.2.321.137.685.153,1.011.274a2.528,2.528,0,0,1,1.338,2.349Z" transform="translate(-914.305 -315.727)"/>
    </g>
    <g id="Group_3098" data-name="Group 3098" transform="translate(470.633 153.348)" opacity="0.1">
      <path id="Path_1287" data-name="Path 1287" d="M920,335.282a4.04,4.04,0,0,1,3.045-3.777,12.642,12.642,0,0,1,7.1.321c5,1.654-.632,7.607-.632,7.607s-3.745,3.687-7.238,1.111a5.473,5.473,0,0,1-2.039-3.161A8.058,8.058,0,0,1,920,335.282Z" transform="translate(-919.997 -331.144)"/>
      <path id="Path_1288" data-name="Path 1288" d="M961.2,335.283a4.041,4.041,0,0,0-3.05-3.777,12.642,12.642,0,0,0-7.1.321c-5,1.654.632,7.607.632,7.607s3.74,3.687,7.238,1.111a5.473,5.473,0,0,0,2.039-3.161,8.061,8.061,0,0,0,.237-2.1Z" transform="translate(-933.714 -331.144)"/>
      <path id="Path_1289" data-name="Path 1289" d="M910.5,291.437v.248h9.129v-.295Z" transform="translate(-901.296 -291.239)"/>
      <path id="Path_1290" data-name="Path 1290" d="M942.773,335.227h.29v-.838a2.4,2.4,0,0,1,2.465,0v.748h.527v-.49H945.8s.105-1.017-1.612-.853c0,0-1.38-.132-1.349.743h-.316Z" transform="translate(-930.656 -332.389)"/>
    </g>
    <path id="Path_1291" data-name="Path 1291" d="M920,334.635a4.04,4.04,0,0,1,3.045-3.777,12.711,12.711,0,0,1,7.1.321c5,1.659-.632,7.607-.632,7.607s-3.745,3.687-7.238,1.111a5.441,5.441,0,0,1-2.039-3.161A8.017,8.017,0,0,1,920,334.635Z" transform="translate(-449.364 -177.491)" fill="#ff00c7"/>
    <path id="Path_1292" data-name="Path 1292" d="M961.2,334.635a4.04,4.04,0,0,0-3.05-3.777,12.69,12.69,0,0,0-7.1.321c-5,1.659.632,7.607.632,7.607s3.74,3.687,7.238,1.112a5.442,5.442,0,0,0,2.039-3.161A8.011,8.011,0,0,0,961.2,334.635Z" transform="translate(-463.081 -177.491)" fill="#ff00c7"/>
    <path id="Path_1293" data-name="Path 1293" d="M910.5,290.807v.253h9.129v-.3Z" transform="translate(-430.663 -137.593)" fill="#ff00c7"/>
    <path id="Path_1294" data-name="Path 1294" d="M942.773,334.6h.29v-.838a2.413,2.413,0,0,1,2.465,0v.753h.527v-.5H945.8s.105-1.011-1.612-.853c0,0-1.38-.126-1.349.743h-.316Z" transform="translate(-460.022 -178.745)" fill="#ff00c7"/>
    <rect id="Rectangle_515" data-name="Rectangle 515" width="2.992" height="67.375" transform="translate(62.083 240.838)" fill="#535461"/>
    <path id="Path_1295" data-name="Path 1295" d="M149.327,620.656l-.19,3.034-.263,4.283-.111,1.786-.263,4.288-.116,1.786-.263,4.283L145.1,688.826a8.249,8.249,0,0,1-8.234,7.744H121.181a8.244,8.244,0,0,1-8.228-7.743l-3.034-48.712-.263-4.283-.111-1.786-.258-4.3-.111-1.786-.263-4.283-.19-3.034a4.272,4.272,0,0,1,4.267-4.536h32.075a4.267,4.267,0,0,1,4.262,4.546Z" transform="translate(-65.445 -312.649)" fill="#3f3d56"/>
    <path id="Path_1296" data-name="Path 1296" d="M122.34,590.46l-.263,4.283h-39.7l-.263-4.283Z" transform="translate(-38.648 -279.419)" fill="#9d9cb5"/>
    <path id="Path_1297" data-name="Path 1297" d="M122.3,601.98l-.263,4.288H83.089l-.269-4.288Z" transform="translate(-38.984 -284.87)" fill="#9d9cb5"/>
    <path id="Path_1298" data-name="Path 1298" d="M122.263,613.51,122,617.793H83.809l-.269-4.283Z" transform="translate(-39.325 -290.326)" fill="#9d9cb5"/>
    <path id="Path_1299" data-name="Path 1299" d="M65.865,533.2C83.29,545.8,90.549,565.526,90.549,565.526s-21-.722-38.455-13.327S27.41,519.87,27.41,519.87,48.434,520.592,65.865,533.2Z" transform="translate(-26.97 -267.106)" fill="#ff00c7"/>
    <path id="Path_1300" data-name="Path 1300" d="M27.46,519.87s21.8,12.116,28.788,22.125,34.325,23.536,34.325,23.536" transform="translate(-26.994 -267.106)" fill="none" stroke="#535461" stroke-miterlimit="10" stroke-width="2"/>
    <path id="Path_1301" data-name="Path 1301" d="M102.973,490.484c9.482,6.848,13.438,17.594,13.438,17.594s-11.431-.39-20.918-7.254S82.06,483.23,82.06,483.23,93.491,483.594,102.973,490.484Z" transform="translate(-52.832 -249.767)" fill="#ff00c7"/>
    <path id="Path_1302" data-name="Path 1302" d="M82.06,483.18s11.863,6.585,15.666,12.037,18.685,12.811,18.685,12.811" transform="translate(-52.832 -249.743)" fill="none" stroke="#535461" stroke-miterlimit="10" stroke-width="2"/>
    <path id="Path_1303" data-name="Path 1303" d="M161.581,515.175c-10.9,11.974-13.2,27.619-13.2,27.619s15.361-3.766,26.255-15.74,13.2-27.624,13.2-27.624S172.475,503.2,161.581,515.175Z" transform="translate(-84.216 -257.433)" fill="#ff00c7"/>
    <path id="Path_1304" data-name="Path 1304" d="M187.835,499.43s-14.191,12.274-17.8,20.734-21.656,22.651-21.656,22.651" transform="translate(-84.216 -257.433)" fill="none" stroke="#535461" stroke-miterlimit="10" stroke-width="2"/>
  </g>
</svg>
