<svg xmlns="http://www.w3.org/2000/svg" width="21.14" height="21.65" viewBox="0 0 21.14 21.65">
  <path id="settings-outline" d="M58.325,49.252a3.088,3.088,0,1,0,2.769,2.769A3.088,3.088,0,0,0,58.325,49.252Zm7.435,3.073a7.447,7.447,0,0,1-.074,1l2.181,1.711a.522.522,0,0,1,.118.663l-2.064,3.57a.522.522,0,0,1-.634.221l-2.166-.872a.777.777,0,0,0-.732.084,7.935,7.935,0,0,1-1.039.605.769.769,0,0,0-.426.586L60.6,62.208a.535.535,0,0,1-.515.442H55.958a.536.536,0,0,1-.516-.428l-.324-2.307a.775.775,0,0,0-.434-.59,7.493,7.493,0,0,1-1.035-.606.772.772,0,0,0-.729-.083l-2.166.872a.522.522,0,0,1-.634-.221l-2.064-3.57a.521.521,0,0,1,.118-.663l1.844-1.447a.774.774,0,0,0,.289-.679c-.017-.2-.028-.4-.028-.6s.01-.4.028-.6a.772.772,0,0,0-.293-.673l-1.843-1.447a.522.522,0,0,1-.114-.66l2.064-3.57a.522.522,0,0,1,.634-.221l2.166.872a.777.777,0,0,0,.732-.084,7.936,7.936,0,0,1,1.039-.605.769.769,0,0,0,.426-.586l.325-2.311A.535.535,0,0,1,55.958,42h4.127a.536.536,0,0,1,.516.428l.324,2.307a.775.775,0,0,0,.434.59,7.492,7.492,0,0,1,1.035.606.772.772,0,0,0,.729.083l2.166-.872a.522.522,0,0,1,.634.221l2.064,3.57a.521.521,0,0,1-.118.663l-1.844,1.447a.774.774,0,0,0-.292.679C65.749,51.923,65.76,52.124,65.76,52.325Z" transform="translate(-47.452 -41.5)" fill="none" stroke="#ff00c7" stroke-linecap="round" stroke-linejoin="round" stroke-width="1"/>
</svg>
