<svg xmlns="http://www.w3.org/2000/svg" width="19.833" height="17.882" viewBox="0 0 19.833 17.882">
  <path id="web" d="M18.966,32.414H18.7v-4.63a1.674,1.674,0,0,0-1.688-1.656H10.35V22.985h1.138a.868.868,0,0,0,.867-.867V18.867A.868.868,0,0,0,11.488,18H7.749a.868.868,0,0,0-.867.867v3.251a.868.868,0,0,0,.867.867h.975v3.143H2.636A1.641,1.641,0,0,0,.975,27.784v4.63H.867A.868.868,0,0,0,0,33.281v1.734a.868.868,0,0,0,.867.867H2.926a.868.868,0,0,0,.867-.867V33.281a.868.868,0,0,0-.867-.867H2.6v-4.63c0-.02,0-.03.035-.03H8.724v4.66H8.562a.868.868,0,0,0-.867.867v1.734a.868.868,0,0,0,.867.867h2.059a.868.868,0,0,0,.867-.867V33.281a.868.868,0,0,0-.867-.867H10.35v-4.66h6.657c.036,0,.062.018.062.03v4.63h-.163a.868.868,0,0,0-.867.867v1.734a.868.868,0,0,0,.867.867h2.059a.868.868,0,0,0,.867-.867V33.281A.868.868,0,0,0,18.966,32.414Z" transform="translate(0 -18)" fill="#999"/>
</svg>
